<svg width="14" height="14" viewBox="0 0 14 14" fill="none" xmlns="http://www.w3.org/2000/svg">
<path d="M12.6492 1.73363C12.5279 1.63078 12.3809 1.56274 12.2239 1.53674C12.067 1.51074 11.9059 1.52775 11.7578 1.58598L1.66251 5.55082C1.48544 5.61828 1.33546 5.74208 1.23565 5.90315C1.13585 6.06422 1.09176 6.25364 1.11017 6.44223C1.1266 6.63074 1.20369 6.80885 1.3299 6.94985C1.45611 7.09084 1.62462 7.18713 1.81017 7.22426L4.37501 7.73285V10.9375C4.37492 11.1109 4.42633 11.2804 4.52273 11.4245C4.61912 11.5686 4.75614 11.6808 4.91642 11.7469C5.02249 11.7896 5.13567 11.8119 5.25001 11.8125C5.36494 11.8129 5.47878 11.7904 5.58489 11.7463C5.69101 11.7022 5.78725 11.6373 5.86798 11.5555L7.28986 10.1391L9.43908 12.0313C9.59774 12.1712 9.80174 12.2489 10.0133 12.25C10.1063 12.252 10.1989 12.2371 10.2867 12.2063C10.431 12.1606 10.5609 12.0781 10.6636 11.9668C10.7662 11.8556 10.838 11.7194 10.8719 11.5719L12.9281 2.59223C12.9641 2.43728 12.9571 2.27546 12.908 2.12418C12.8588 1.9729 12.7694 1.83788 12.6492 1.73363V1.73363ZM4.70861 6.90707L1.98517 6.36566L9.61954 3.36332L4.70861 6.90707ZM5.25001 10.9375V8.34535L6.62814 9.55941L5.25001 10.9375ZM10.0188 11.375L5.51251 7.41019L12.0039 2.72348L10.0188 11.375Z" fill="#333"/>
</svg>
